<svg xmlns="http://www.w3.org/2000/svg" viewBox="0 0 320 200" width="320" height="200" role="img"><title>Eli asleep, breathing, Zzz</title><defs>
<linearGradient id="zs" x1="0" y1="0" x2=".35" y2="1"><stop offset="0" stop-color="#171a17"/><stop offset="1" stop-color="#0a0b0a"/></linearGradient>
<linearGradient id="zg" x1="0" y1="0" x2="0" y2="1"><stop offset="0" stop-color="#fff" stop-opacity=".04"/><stop offset=".3" stop-color="#fff" stop-opacity="0"/></linearGradient>
<radialGradient id="zv" cx=".5" cy=".5" r=".75"><stop offset=".6" stop-color="#000" stop-opacity="0"/><stop offset="1" stop-color="#000" stop-opacity=".55"/></radialGradient>
<radialGradient id="zf"><stop offset="0" stop-color="#000" stop-opacity=".5"/><stop offset="1" stop-color="#000" stop-opacity="0"/></radialGradient>
<pattern id="zp" width="4" height="4" patternUnits="userSpaceOnUse"><path d="M0 0h4v1H0zM0 0h1v4H0z" fill="#000" fill-opacity=".38"/></pattern>
<filter id="zb" x="-5%" y="-10%" width="110%" height="120%"><feGaussianBlur stdDeviation="3" result="b"/><feColorMatrix in="b" values="1 0 0 0 0 0 1 0 0 0 0 0 1 0 0 0 0 0 .9 0" result="c"/><feMerge><feMergeNode in="c"/><feMergeNode in="SourceGraphic"/></feMerge></filter>
</defs>
<ellipse cx="160.0" cy="174.4" rx="130.64000000000001" ry="15.400000000000002" fill="url(#zf)"/>
<rect x="18.0" y="10" width="284" height="156" rx="22" fill="url(#zs)" stroke="#232823"/>
<rect x="19.5" y="11.5" width="281" height="153" rx="20.5" fill="none" stroke="#fff" stroke-opacity=".05"/>
<g transform="translate(32.0 24)">
<rect width="256" height="128" rx="5" fill="#000"/>
<g filter="url(#zb)"><g transform="translate(0 0)"><animateTransform attributeName="transform" type="translate" values="0 0;0 -4;0 0" keyTimes="0;0.1333;0.4" dur="4.5s" calcMode="discrete" repeatCount="indefinite"/><g transform="translate(0 4)"><g transform="scale(4)" stroke="#46ff86" fill="none" stroke-width="1" shape-rendering="crispEdges"><path d="M13 11.5h13m12 0h13m-38 1h13m12 0h13"/></g></g><g transform="scale(4)" stroke="#46ff86" fill="none" stroke-width="1" shape-rendering="crispEdges"><path d="M29 25.5h6m-6 1h6" visibility="hidden"><animate attributeName="visibility" values="hidden;visible;hidden;visible;hidden" keyTimes="0;0.0889;0.2;0.3556;0.4444" dur="4.5s" calcMode="discrete" repeatCount="indefinite"/></path><path d="M30 25.5h4m-5 1h6" visibility="visible"><animate attributeName="visibility" values="visible;hidden;visible" keyTimes="0;0.0889;0.4444" dur="4.5s" calcMode="discrete" repeatCount="indefinite"/></path><path d="M30 25.5h4m-5 1h6m-5 1h4" visibility="hidden"><animate attributeName="visibility" values="hidden;visible;hidden" keyTimes="0;0.2;0.3556" dur="4.5s" calcMode="discrete" repeatCount="indefinite"/></path></g></g><g transform="translate(0 0)"><animateTransform attributeName="transform" type="translate" values="0 0;0 0;0 -4;4 -8;4 -12;8 -16;8 -20;12 -24" keyTimes="0;0.0667;0.1333;0.2;0.2667;0.3333;0.4;0.4667" dur="4.5s" calcMode="discrete" repeatCount="indefinite"/><path transform="translate(212 40) scale(4)" d="M0 0.5h3m-2 1h1m-2 1h3" stroke="#46ff86" fill="none" shape-rendering="crispEdges" visibility="hidden"><animate attributeName="visibility" values="hidden;visible;hidden" keyTimes="0;0.0667;0.5111" dur="4.5s" calcMode="discrete" repeatCount="indefinite"/></path></g><g transform="translate(0 0)"><animateTransform attributeName="transform" type="translate" values="0 0;0 0;0 -4;4 -8;4 -12;8 -16;8 -20;12 -24" keyTimes="0;0.3111;0.3778;0.4444;0.5111;0.5778;0.6444;0.7111" dur="4.5s" calcMode="discrete" repeatCount="indefinite"/><path transform="translate(224 32) scale(4)" d="M0 0.5h4m-2 1h1m-2 1h1m-2 1h4" stroke="#46ff86" fill="none" shape-rendering="crispEdges" visibility="hidden"><animate attributeName="visibility" values="hidden;visible;hidden" keyTimes="0;0.3111;0.7556" dur="4.5s" calcMode="discrete" repeatCount="indefinite"/></path></g><g transform="translate(0 0)"><animateTransform attributeName="transform" type="translate" values="0 0;0 0;0 -4;4 -8;4 -12;8 -16;8 -20;12 -24" keyTimes="0;0.5556;0.6222;0.6889;0.7556;0.8222;0.8889;0.9556" dur="4.5s" calcMode="discrete" repeatCount="indefinite"/><path transform="translate(236 24) scale(4)" d="M0 0.5h5m-2 1h1m-2 1h1m-2 1h1m-2 1h5" stroke="#46ff86" fill="none" shape-rendering="crispEdges" visibility="hidden"><animate attributeName="visibility" values="hidden;visible;hidden" keyTimes="0;0.5556;1" dur="4.5s" calcMode="discrete" repeatCount="indefinite"/></path></g></g>
<rect width="256" height="128" fill="url(#zp)"/>
<rect width="256" height="128" rx="5" fill="url(#zv)"/>
<rect width="256" height="128" rx="5" fill="url(#zg)"/>
</g></svg>
