<svg xmlns="http://www.w3.org/2000/svg" viewBox="0 0 320 200" width="320" height="200" role="img"><title>Eli dancing and singing</title><defs>
<linearGradient id="ss" x1="0" y1="0" x2=".35" y2="1"><stop offset="0" stop-color="#171a17"/><stop offset="1" stop-color="#0a0b0a"/></linearGradient>
<linearGradient id="sg" x1="0" y1="0" x2="0" y2="1"><stop offset="0" stop-color="#fff" stop-opacity=".04"/><stop offset=".3" stop-color="#fff" stop-opacity="0"/></linearGradient>
<radialGradient id="sv" cx=".5" cy=".5" r=".75"><stop offset=".6" stop-color="#000" stop-opacity="0"/><stop offset="1" stop-color="#000" stop-opacity=".55"/></radialGradient>
<radialGradient id="sf"><stop offset="0" stop-color="#000" stop-opacity=".5"/><stop offset="1" stop-color="#000" stop-opacity="0"/></radialGradient>
<pattern id="sp" width="4" height="4" patternUnits="userSpaceOnUse"><path d="M0 0h4v1H0zM0 0h1v4H0z" fill="#000" fill-opacity=".38"/></pattern>
<filter id="sb" x="-5%" y="-10%" width="110%" height="120%"><feGaussianBlur stdDeviation="3" result="b"/><feColorMatrix in="b" values="1 0 0 0 0 0 1 0 0 0 0 0 1 0 0 0 0 0 .9 0" result="c"/><feMerge><feMergeNode in="c"/><feMergeNode in="SourceGraphic"/></feMerge></filter>
</defs>
<ellipse cx="160.0" cy="174.4" rx="130.64000000000001" ry="15.400000000000002" fill="url(#sf)"/>
<rect x="18.0" y="10" width="284" height="156" rx="22" fill="url(#ss)" stroke="#232823"/>
<rect x="19.5" y="11.5" width="281" height="153" rx="20.5" fill="none" stroke="#fff" stroke-opacity=".05"/>
<g transform="translate(32.0 24)">
<rect width="256" height="128" rx="5" fill="#000"/>
<g filter="url(#sb)"><g transform="translate(0 -4)"><animateTransform attributeName="transform" type="translate" values="0 0;0 -4;0 0;0 -4;0 0;0 -4;0 0;0 -4;0 0;0 -4;0 0;0 -4;0 0;0 -4;0 0;0 -4;0 0" keyTimes="0;0;0.035;0.125;0.16;0.25;0.285;0.375;0.41;0.5;0.535;0.625;0.66;0.75;0.785;0.875;0.91" dur="4.0s" calcMode="discrete" repeatCount="indefinite"/><g transform="translate(-4 -4)"><animateTransform attributeName="transform" type="translate" values="-4 -4;4 -4;4 -8;-4 0;4 -8;4 -4" keyTimes="0;0.25;0.375;0.5;0.75;0.875" dur="4.0s" calcMode="discrete" repeatCount="indefinite"/><g transform="scale(4)" stroke="#46ff86" fill="none" stroke-width="1" shape-rendering="crispEdges"><path d="M16 4.5h6m20 0h6m-34 1h10m16 0h10m-37 1h12m14 0h12m-38 1h13m12 0h13m-38 1h13m12 0h13m-38 1h13m12 0h13m-38 1h13m12 0h13m-38 1h5m2 0h6m12 0h6m2 0h5m-38 1h2m8 0h3m12 0h3m8 0h2m-38 1h1m10 0h2m12 0h2m10 0h1m-26 1h1m12 0h1" visibility="visible"><animate attributeName="visibility" values="visible;hidden;visible;hidden;visible" keyTimes="0;0.375;0.5;0.75;0.875" dur="4.0s" calcMode="discrete" repeatCount="indefinite"/></path><path d="M15 7.5h8m18 0h8m-36 1h12m14 0h12m-38 1h12m14 0h12m-38 1h13m12 0h13m-38 1h13m12 0h13m-38 1h13m12 0h13m-38 1h13m12 0h13m-38 1h13m12 0h13" visibility="hidden"><animate attributeName="visibility" values="hidden;visible;hidden;visible;hidden" keyTimes="0;0.375;0.5;0.75;0.875" dur="4.0s" calcMode="discrete" repeatCount="indefinite"/></path></g></g><g transform="scale(4)" stroke="#46ff86" fill="none" stroke-width="1" shape-rendering="crispEdges"><path d="M29 24.5h6m-7 1h8m-8 1h8m-8 1h8" visibility="hidden"><animate attributeName="visibility" values="hidden;visible;hidden" keyTimes="0;0.25;0.375" dur="4.0s" calcMode="discrete" repeatCount="indefinite"/></path><path d="M30 24.5h4m-4 1h4m-4 1h4m-4 1h4m-3 1h2" visibility="visible"><animate attributeName="visibility" values="visible;hidden;visible" keyTimes="0;0.125;0.875" dur="4.0s" calcMode="discrete" repeatCount="indefinite"/></path><path d="M30 25.5h4m-4 1h4m-3 1h2" visibility="hidden"><animate attributeName="visibility" values="hidden;visible;hidden" keyTimes="0;0.5;0.625" dur="4.0s" calcMode="discrete" repeatCount="indefinite"/></path><path d="M31 23.5h2m-3 1h4m-4 1h4m-4 1h4m-4 1h4m-4 1h4" visibility="hidden"><animate attributeName="visibility" values="hidden;visible;hidden;visible;hidden" keyTimes="0;0.125;0.25;0.625;0.75" dur="4.0s" calcMode="discrete" repeatCount="indefinite"/></path><path d="M30 23.5h4m-4 1h4m-4 1h4m-4 1h4m-4 1h4m-4 1h4m-3 1h2" visibility="hidden"><animate attributeName="visibility" values="hidden;visible;hidden;visible;hidden" keyTimes="0;0.375;0.5;0.75;0.875" dur="4.0s" calcMode="discrete" repeatCount="indefinite"/></path></g></g><g transform="translate(0 0)"><animateTransform attributeName="transform" type="translate" values="0 0;0 0;4 -4;0 -8;4 -12;0 -16;4 -20;0 -24;4 -28;0 -32" keyTimes="0;0.05;0.095;0.14;0.185;0.23;0.275;0.32;0.365;0.41" dur="4.0s" calcMode="discrete" repeatCount="indefinite"/><path transform="translate(16 72) scale(4)" d="M3 0.5h3m-3 1h1m1 0h1m-3 1h1m-1 1h1m-3 1h3m-4 1h4m-3 1h2" stroke="#46ff86" fill="none" shape-rendering="crispEdges" visibility="hidden"><animate attributeName="visibility" values="hidden;visible;hidden" keyTimes="0;0.05;0.45" dur="4.0s" calcMode="discrete" repeatCount="indefinite"/></path></g><g transform="translate(0 0)"><animateTransform attributeName="transform" type="translate" values="0 0;0 0;4 -4;0 -8;4 -12;0 -16;4 -20;0 -24;4 -28;0 -32" keyTimes="0;0.4;0.445;0.49;0.535;0.58;0.625;0.67;0.715;0.76" dur="4.0s" calcMode="discrete" repeatCount="indefinite"/><path transform="translate(212 72) scale(4)" d="M3 0.5h3m-3 1h1m1 0h1m-3 1h1m-1 1h1m-3 1h3m-4 1h4m-3 1h2" stroke="#46ff86" fill="none" shape-rendering="crispEdges" visibility="hidden"><animate attributeName="visibility" values="hidden;visible;hidden" keyTimes="0;0.4;0.8" dur="4.0s" calcMode="discrete" repeatCount="indefinite"/></path></g><g transform="translate(0 0)"><animateTransform attributeName="transform" type="translate" values="0 0;0 0;4 -4;0 -8;4 -12;0 -16;4 -20;0 -24;4 -28;0 -32" keyTimes="0;0.65;0.695;0.74;0.785;0.83;0.875;0.92;0.965;1.01" dur="4.0s" calcMode="discrete" repeatCount="indefinite"/><path transform="translate(32 72) scale(4)" d="M3 0.5h3m-3 1h1m1 0h1m-3 1h1m-1 1h1m-3 1h3m-4 1h4m-3 1h2" stroke="#46ff86" fill="none" shape-rendering="crispEdges" visibility="hidden"><animate attributeName="visibility" values="hidden;visible;hidden" keyTimes="0;0.65;1.05" dur="4.0s" calcMode="discrete" repeatCount="indefinite"/></path></g></g>
<rect width="256" height="128" fill="url(#sp)"/>
<rect width="256" height="128" rx="5" fill="url(#sv)"/>
<rect width="256" height="128" rx="5" fill="url(#sg)"/>
</g></svg>
